<svg xmlns="http://www.w3.org/2000/svg" width="16" height="20" viewBox="0 0 16 20" fill="none">
<g clip-path="url(#clip0_200_1462)">
<g clip-path="url(#clip1_200_1462)">
<path fill-rule="evenodd" clip-rule="evenodd" d="M12.5138 4.76715C12.5138 7.39608 10.3756 9.53429 7.74667 9.53429C5.11773 9.53429 2.97952 7.39608 2.97952 4.76715C2.97952 2.1382 5.11773 0 7.74667 0C10.3756 0 12.5138 2.1382 12.5138 4.76715ZM10.6327 4.76715C10.6327 3.16641 9.33572 1.88115 7.74667 1.88115C6.14593 1.88115 4.86068 3.16641 4.86068 4.76715C4.86068 6.36788 6.14593 7.65313 7.74667 7.65313C9.3474 7.65313 10.6327 6.36788 10.6327 4.76715ZM0 17.9469C0 13.6705 3.4702 10.2003 7.74661 10.2003C12.023 10.2003 15.4932 13.6705 15.4932 17.9469C15.4932 18.4727 15.0725 18.8933 14.5468 18.8933C14.0211 18.8933 13.6004 18.4727 13.6004 17.9469C13.6004 14.7104 10.9831 12.0931 7.74661 12.0931C4.51009 12.0931 1.89284 14.7104 1.89284 17.9469C1.89284 18.4727 1.47221 18.8933 0.946419 18.8933C0.420631 18.8933 0 18.4727 0 17.9469Z" fill="#909090"/>
</g>
</g>
<defs>
<clipPath id="clip0_200_1462">
<rect width="16" height="20" fill="white"/>
</clipPath>
<clipPath id="clip1_200_1462">
<rect width="16" height="20" fill="white"/>
</clipPath>
</defs>
</svg>