<svg xmlns="http://www.w3.org/2000/svg" width="31" height="32" viewBox="0 0 31 32" fill="none">
<g clip-path="url(#clip0_1_1795)">
<g clip-path="url(#clip1_1_1795)">
<g clip-path="url(#clip2_1_1795)">
<path d="M20.0939 19.8995H6.59454C6.05457 19.8995 5.69458 19.5395 5.69458 18.9996V10.9C5.69458 10.36 6.05457 10 6.59454 10H21.8938C22.1638 10 22.4338 10.09 22.6138 10.36C22.7938 10.54 22.7938 10.81 22.7938 11.0799L20.9938 19.1796C20.9038 19.6295 20.5439 19.8995 20.0939 19.8995ZM7.49449 18.0996H19.3739L20.8138 11.7999H7.49449V18.0996Z" fill="#909090"/>
<path d="M6.59408 11.7999H3.89422C3.35424 11.7999 2.99426 11.4399 2.99426 10.9C2.99426 10.36 3.35424 10 3.89422 10H6.59408C7.13406 10 7.49404 10.36 7.49404 10.9C7.49404 11.4399 7.13406 11.7999 6.59408 11.7999Z" fill="#909090"/>
<path d="M6.59454 11.7999C6.32455 11.7999 6.14455 11.7099 5.96457 11.5299C5.78458 11.3499 5.69458 11.1699 5.69458 10.9C5.69458 10.63 5.78458 10.45 5.96457 10.27C6.32455 9.91 6.86452 9.91 7.2245 10.27C7.40449 10.45 7.49449 10.63 7.49449 10.9C7.49449 11.1699 7.40449 11.3499 7.2245 11.5299C7.04452 11.7099 6.86452 11.7999 6.59454 11.7999Z" fill="#909090"/>
<path d="M8.39427 28.0001C9.38833 28.0001 10.1942 27.1942 10.1942 26.2001C10.1942 25.2061 9.38833 24.4003 8.39427 24.4003C7.40021 24.4003 6.59436 25.2061 6.59436 26.2001C6.59436 27.1942 7.40021 28.0001 8.39427 28.0001Z" fill="#909090"/>
<path d="M18.2935 28.0001C19.2876 28.0001 20.0935 27.1942 20.0935 26.2001C20.0935 25.2061 19.2876 24.4003 18.2935 24.4003C17.2995 24.4003 16.4937 25.2061 16.4937 26.2001C16.4937 27.1942 17.2995 28.0001 18.2935 28.0001Z" fill="#909090"/>
<path d="M6.59454 23.4986C6.05457 23.4986 5.69458 23.1386 5.69458 22.5986V18.9988C5.69458 18.4588 6.05457 18.0988 6.59454 18.0988C7.1345 18.0988 7.49449 18.4588 7.49449 18.9988V22.5986C7.49449 23.1386 7.1345 23.4986 6.59454 23.4986Z" fill="#909090"/>
<path d="M20.0939 23.4976H6.59454C6.05457 23.4976 5.69458 23.1376 5.69458 22.5976C5.69458 22.0576 6.05457 21.6976 6.59454 21.6976H20.0939C20.6338 21.6976 20.9938 22.0576 20.9938 22.5976C20.9938 23.1376 20.6338 23.4976 20.0939 23.4976Z" fill="#909090"/>
</g>
</g>
</g>
<defs>
<clipPath id="clip0_1_1795">
<rect width="20.56" height="18" fill="white" transform="translate(3 10)"/>
</clipPath>
<clipPath id="clip1_1_1795">
<rect width="20.56" height="18" fill="white" transform="translate(3 10)"/>
</clipPath>
<clipPath id="clip2_1_1795">
<rect width="20.5714" height="18" fill="white" transform="translate(2.99426 10)"/>
</clipPath>
</defs>
</svg>